<svg id="Layer_1" data-name="Layer 1" xmlns="http://www.w3.org/2000/svg" viewBox="0 0 128 128"><title>HOME INSURANCE</title><path d="M113.854,103.947h-.9V83.91a1.753,1.753,0,0,0-.936-1.55L94.205,73.006V70.5a6.837,6.837,0,0,0,5.953-12.28L79.545,46.552a38.711,38.711,0,0,0,1.6-4.925,50.33,50.33,0,0,0,1.449-13.2,1.75,1.75,0,0,0-1.222-1.632c-7.921-2.506-13.857-4.9-16.691-6.1a1.755,1.755,0,0,0-1.368,0c-2.834,1.2-8.77,3.6-16.691,6.1A1.751,1.751,0,0,0,45.4,28.425a50.3,50.3,0,0,0,1.449,13.2,38.726,38.726,0,0,0,1.6,4.926L27.842,58.224a6.843,6.843,0,0,0,3.38,12.792,6.755,6.755,0,0,0,2.573-.511v2.551l-17.718,9.3a1.751,1.751,0,0,0-.936,1.55v20.037h-.995a1.75,1.75,0,0,0,0,3.5h99.708a1.75,1.75,0,0,0,0-3.5Zm-4.4-18.979v18.979H94.205V76.96ZM75.347,103.947H52.653V81.254H75.347ZM77.1,77.754H50.9a1.75,1.75,0,0,0-1.75,1.75v24.443H37.3V68.587L56.459,57.735a25.381,25.381,0,0,0,6.914,3.955,1.739,1.739,0,0,0,1.254,0,25.381,25.381,0,0,0,6.914-3.955L90.705,68.587v35.36H78.847V79.5A1.75,1.75,0,0,0,77.1,77.754ZM98.433,61.269a3.338,3.338,0,1,1-3.289,5.81L74.207,55.223a26.878,26.878,0,0,0,3.855-5.489ZM64,24.2c2.932,1.226,8.227,3.32,15.106,5.54a47.1,47.1,0,0,1-1.35,11.024c-2.2,8.667-6.829,14.52-13.756,17.407-6.927-2.887-11.553-8.74-13.756-17.408a47.076,47.076,0,0,1-1.35-11.023C55.773,27.521,61.068,25.427,64,24.2ZM30.321,67.392a3.339,3.339,0,0,1-.754-6.123L49.938,49.734a26.878,26.878,0,0,0,3.855,5.489L32.855,67.079A3.309,3.309,0,0,1,30.321,67.392ZM18.641,84.968,33.8,77.01v26.937H18.641Z"/><path d="M60.652,45.379a1.746,1.746,0,0,0,1.25.527h0a1.75,1.75,0,0,0,1.25-.525l8.359-8.536a1.75,1.75,0,1,0-2.5-2.449l-7.106,7.257-2.917-2.987a1.75,1.75,0,0,0-2.5,2.445Z"/></svg>