<svg id="Layer_1" data-name="Layer 1" xmlns="http://www.w3.org/2000/svg" viewBox="0 0 128 128"><title>TRAVEL INSURANCE</title><path d="M47.306,27.477a1.748,1.748,0,0,0,.557-.092,43.412,43.412,0,0,1,11.876-2.213,1.75,1.75,0,0,0-.158-3.5,46.915,46.915,0,0,0-12.833,2.391,1.751,1.751,0,0,0,.558,3.41Z"/><path d="M26.808,41.605a1.746,1.746,0,0,0,1.351-.636,43.722,43.722,0,0,1,8.9-8.174,1.75,1.75,0,1,0-1.988-2.881,47.263,47.263,0,0,0-9.616,8.828,1.749,1.749,0,0,0,1.35,2.863Z"/><path d="M37.624,104.82a43.685,43.685,0,0,1-9.03-8.035,1.75,1.75,0,0,0-2.666,2.269,47.218,47.218,0,0,0,9.753,8.677,1.75,1.75,0,1,0,1.943-2.911Z"/><path d="M18.7,75a1.75,1.75,0,1,0-3.463.508,46.66,46.66,0,0,0,3.687,12.528,1.75,1.75,0,1,0,3.185-1.449A43.192,43.192,0,0,1,18.7,75Z"/><path d="M60.422,112.087a43.452,43.452,0,0,1-11.911-2.025,1.75,1.75,0,1,0-1.063,3.334,46.9,46.9,0,0,0,12.87,2.189h.053a1.75,1.75,0,0,0,.051-3.5Z"/><path d="M16.648,64.419a1.812,1.812,0,0,0,.23.015,1.751,1.751,0,0,0,1.733-1.523,43.19,43.19,0,0,1,3.227-11.642,1.75,1.75,0,1,0-3.209-1.4,46.656,46.656,0,0,0-3.488,12.586A1.749,1.749,0,0,0,16.648,64.419Z"/><path d="M83.616,106.206a43.255,43.255,0,0,1-11.181,4.573,1.75,1.75,0,1,0,.859,3.392,46.668,46.668,0,0,0,12.086-4.943,1.75,1.75,0,1,0-1.764-3.022Z"/><path d="M106.732,63.641a1.751,1.751,0,0,0-1.623,1.869c.073,1.026.11,2.071.11,3.107a43.842,43.842,0,0,1-.922,8.953,1.749,1.749,0,0,0,1.354,2.071,1.717,1.717,0,0,0,.361.038,1.752,1.752,0,0,0,1.711-1.392,47.3,47.3,0,0,0,1-9.67c0-1.118-.04-2.246-.117-3.353A1.748,1.748,0,0,0,106.732,63.641Z"/><path d="M102.557,88.205a1.751,1.751,0,0,0-2.366.728,43.555,43.555,0,0,1-7.082,9.793,1.75,1.75,0,0,0,2.526,2.424,47.115,47.115,0,0,0,7.65-10.58A1.75,1.75,0,0,0,102.557,88.205Z"/><path d="M113.249,20.265a1.752,1.752,0,0,0-1.223-1.632c-7.916-2.5-13.855-4.9-16.691-6.1a1.753,1.753,0,0,0-1.367,0c-2.836,1.2-8.776,3.6-16.692,6.1a1.751,1.751,0,0,0-1.222,1.632c-.022,1.035-.009,2.266.056,3.616-1.117-.358-2.244-.686-3.38-.959a1.75,1.75,0,1,0-.816,3.4A43.027,43.027,0,0,1,76.432,27.7,46.451,46.451,0,0,0,77.5,33.468,38.786,38.786,0,0,0,79.072,38.3a34.938,34.938,0,0,0-23.734-4.025l-.015,0A34.8,34.8,0,0,0,34.707,46.5c-.017.019-.034.039-.05.059l0,0A34.914,34.914,0,0,0,61.73,103.54h0A34.964,34.964,0,0,0,96.66,68.62a35.373,35.373,0,0,0-.632-6.63c0-.024-.011-.048-.015-.072v0a34.687,34.687,0,0,0-2.971-8.8c.326.14.649.283.983.412a1.753,1.753,0,0,0,1.254,0,25.683,25.683,0,0,0,5.909-3.186c.509,1.1.989,2.211,1.4,3.342a1.751,1.751,0,0,0,1.643,1.149,1.752,1.752,0,0,0,1.644-2.351,47.252,47.252,0,0,0-1.935-4.479A30.368,30.368,0,0,0,111.8,33.468,50.455,50.455,0,0,0,113.249,20.265ZM30.3,68.62a31.46,31.46,0,0,1,3.9-15.145,19.131,19.131,0,0,0,2,6.954c2.737,5.248,5.983,6.615,8.846,7.822a12.1,12.1,0,0,1,5.69,3.938c3.945,5.111.621,11.31-3.8,15.406-2.251,2.079-3.057,4.589-2.27,7.065.047.146.112.288.169.432A31.414,31.414,0,0,1,30.3,68.62Zm31.54,31.417C52.755,98.825,48.7,95.816,48,93.6c-.363-1.141.077-2.3,1.311-3.435,5.3-4.912,9.586-13.127,4.2-20.112a15.527,15.527,0,0,0-7.1-5.026c-2.655-1.119-4.948-2.085-7.1-6.215a18.336,18.336,0,0,1-1.6-10.43A31.32,31.32,0,0,1,53.676,38.24c-.01,3.6,1.37,8.375,6.7,10.4,4.265,1.613,8.049.872,11.09.277,3.695-.722,5.719-1,7.754,1.165a29.085,29.085,0,0,1,3.724,5.266c2.087,3.491,4.242,7.091,9.833,8.446A31.389,31.389,0,0,1,61.84,100.037Zm30.075-40.2C89,58.624,87.659,56.4,85.953,53.549a32.417,32.417,0,0,0-4.178-5.868c-3.453-3.674-7.276-2.924-10.976-2.2-2.875.563-5.849,1.145-9.179-.116-4.3-1.627-4.556-5.811-4.408-7.846a31.4,31.4,0,0,1,26.232,8.388A24.9,24.9,0,0,0,85.9,48.527,31.2,31.2,0,0,1,91.915,59.842ZM108.407,32.6c-2.2,8.668-6.829,14.521-13.756,17.408a21.388,21.388,0,0,1-6.337-4.051q-1.042-1.22-2.19-2.34A28.559,28.559,0,0,1,80.9,32.6a47.084,47.084,0,0,1-1.351-11.022c6.876-2.22,12.173-4.314,15.106-5.54,2.934,1.226,8.231,3.32,15.107,5.54A47.09,47.09,0,0,1,108.407,32.6Z"/><path d="M89.641,30.507a1.75,1.75,0,1,0-2.5,2.445L91.3,37.22a1.75,1.75,0,0,0,1.251.528h0a1.751,1.751,0,0,0,1.25-.526l8.359-8.536a1.75,1.75,0,1,0-2.5-2.45l-7.107,7.258Z"/></svg>